<svg xmlns="http://www.w3.org/2000/svg" viewBox="0 0 512 512" role="img" aria-label="FinalWhistle">
  <rect width="512" height="512" rx="112" fill="#08120d"/>
  <g transform="translate(256 256) scale(2) translate(-86 -78)">
    <path d="M46 0h80l46 78-46 78H46L0 78 46 0Z" fill="none" stroke="#9ee633" stroke-width="9" stroke-linejoin="round"/>
    <g transform="translate(36 44)">
      <path fill="#9ee633" d="M40 70c-20.4 0-37-15.4-37-34.4C3 16.6 19.6 1.2 40 1.2c13.5 0 25.3 6.8 31.7 17h37.7c8.1 0 14.6 6.3 14.6 14.1v23.9H91.5V40.1H76.4C74 57 58.6 70 40 70Z"/>
      <path fill="#08120d" d="M87.8 29h24.6c2.3 0 4.2 1.8 4.2 4v12.6H87.8V29Z"/>
      <circle cx="39.6" cy="35.6" r="10.2" fill="#08120d"/>
      <path fill="#9ee633" d="M111.5 19h27.8c8 0 14.5 6.3 14.5 14.1v13.2h-29.9v-14c0-7.3-5.4-13.3-12.4-13.3Z"/>
    </g>
  </g>
</svg>
